<?xml version="1.0" encoding="UTF-8" ?>
<svg version="1.1" xmlns="http://www.w3.org/2000/svg" width="256" height="256">
    <path d="M0 0 C0.72815918 0.39082764 1.45631836 0.78165527 2.20654297 1.18432617 C3.06634766 1.63098633 3.92615234 2.07764648 4.81201172 2.5378418 C6.1171875 3.25037109 6.1171875 3.25037109 7.44873047 3.97729492 C9.15781776 4.88313818 10.86888852 5.78524546 12.58154297 6.68432617 C14.10026001 7.48205444 14.10026001 7.48205444 15.6496582 8.29589844 C20.14983833 10.61392929 24.7308252 12.76157751 29.30419922 14.93041992 C44.20883338 22.01319258 58.97963117 29.36358608 73.74633789 36.72851562 C77.76293248 38.73118223 81.78413827 40.72441654 85.8062849 42.71590328 C88.93588983 44.26766447 92.06194285 45.82647706 95.18706703 47.38723946 C96.6700506 48.12630591 98.15437723 48.86268416 99.64009666 49.59623528 C101.7001799 50.61411922 103.75499378 51.64196133 105.80883789 52.67236328 C106.97412521 53.25207382 108.13941254 53.83178436 109.3400116 54.42906189 C112.29218566 56.14644421 114.15817746 57.54179616 116.32373047 60.16479492 C116.82709503 62.72012997 116.82709503 62.72012997 116.83166504 65.66136169 C116.84294434 66.77871704 116.85422363 67.89607239 116.86584473 69.04728699 C116.8577478 70.26869888 116.84965088 71.49011078 116.84130859 72.74853516 C116.84831787 74.03831268 116.85532715 75.32809021 116.86254883 76.6569519 C116.88078076 80.19221495 116.87371512 83.72701095 116.86103249 87.26228213 C116.85090181 90.9635282 116.86029854 94.66473441 116.86657715 98.36598206 C116.8738543 104.58260268 116.86426516 110.79903323 116.84521484 117.015625 C116.82345535 124.19916292 116.83049017 131.38224656 116.85252047 138.56577343 C116.87068409 144.73577204 116.87322785 150.90563404 116.86276579 157.07565075 C116.85653485 160.75962553 116.85568383 164.44338694 116.86891174 168.12734795 C116.88263301 172.2357247 116.86360501 176.34332108 116.84130859 180.45166016 C116.84940552 181.67104782 116.85750244 182.89043549 116.86584473 184.14677429 C116.78385187 192.28968981 116.78385187 192.28968981 114.70669556 196.24023438 C111.83229568 198.56169373 109.02774981 200.0994098 105.67871094 201.67089844 C105.01658726 201.98659475 104.35446358 202.30229107 103.67227554 202.62755394 C102.23296112 203.31237921 100.79097934 203.99162037 99.3466835 204.66587639 C95.37982409 206.51876025 91.43333516 208.41440406 87.48291016 210.30200195 C86.65260096 210.69722896 85.82229176 211.09245596 84.96682167 211.49965954 C75.73595891 215.90090167 66.59517984 220.47827894 57.45654297 225.06713867 C55.79480836 225.90001068 54.1330041 226.73274374 52.47113037 227.56533813 C47.46253281 230.07540556 42.45552795 232.58863932 37.44873047 235.10229492 C31.50055595 238.08829198 25.55165291 241.07282236 19.60110092 244.05407906 C17.25985195 245.22791115 14.91982743 246.40415802 12.5798645 247.58055115 C11.15746817 248.29356357 9.73501646 249.00646554 8.3125 249.71923828 C7.67480682 250.04066803 7.03711365 250.36209778 6.38009644 250.69326782 C4.70216692 251.53233185 3.01333393 252.34949373 1.32373047 253.16479492 C0.5195871 253.56585953 -0.28455627 253.96692413 -1.11306763 254.38014221 C-9.61874629 256.9839183 -15.44634223 253.85217175 -22.98583984 250.01171875 C-24.09248993 249.46379669 -25.19914001 248.91587463 -26.33932495 248.35134888 C-29.35763779 246.8525235 -32.3681079 245.33978215 -35.37561131 243.81949449 C-38.53172077 242.22753598 -41.69597926 240.65192597 -44.85906982 239.07389832 C-50.16708329 236.42258904 -55.46849967 233.75844843 -60.76611328 231.08642578 C-66.88355234 228.00108291 -73.01070778 224.93577862 -79.14351583 221.88111287 C-85.05447288 218.93642659 -90.95854101 215.97818073 -96.85951996 213.01355553 C-99.3660395 211.75455013 -101.87481598 210.50021911 -104.38553619 209.24961281 C-107.89219867 207.50195547 -111.38864871 205.73447553 -114.88427734 203.96484375 C-116.44282944 203.19232018 -116.44282944 203.19232018 -118.03286743 202.40419006 C-127.6770031 197.48190555 -127.6770031 197.48190555 -129.67626953 193.16479492 C-130.23857233 188.9222468 -130.22223092 184.72614812 -130.19384766 180.45166016 C-130.20085693 179.16013031 -130.20786621 177.86860046 -130.21508789 176.53793335 C-130.23329569 173.00279635 -130.22626511 169.4681272 -130.21357155 165.93298221 C-130.20343267 162.23127418 -130.21283948 158.52960575 -130.21911621 154.82789612 C-130.22638915 148.6130556 -130.21681337 142.39840536 -130.19775391 136.18359375 C-130.17597608 128.99944718 -130.18304424 121.81575453 -130.20505953 114.63161892 C-130.22321231 108.46076652 -130.2257728 102.29005074 -130.21530485 96.11918026 C-130.20907041 92.43469333 -130.20823292 88.75041978 -130.22145081 85.06594658 C-130.23515295 80.95986926 -130.21616187 76.85457458 -130.19384766 72.74853516 C-130.20194458 71.52712326 -130.2100415 70.30571136 -130.21838379 69.04728699 C-130.20710449 67.92993164 -130.1958252 66.81257629 -130.1842041 65.66136169 C-130.182696 64.69075522 -130.1811879 63.72014875 -130.17963409 62.72012997 C-129.53155374 59.4301438 -128.22436205 58.27253739 -125.67626953 56.16479492 C-123.4825592 54.80387878 -123.4825592 54.80387878 -121.07885742 53.58349609 C-120.17434341 53.12009323 -119.26982941 52.65669037 -118.33790588 52.179245 C-117.36804245 51.69365616 -116.39817902 51.20806732 -115.39892578 50.70776367 C-114.39542587 50.20054276 -113.39192596 49.69332184 -112.35801697 49.17073059 C-110.23937752 48.10349032 -108.11859899 47.04048731 -105.99584961 45.98144531 C-102.74624204 44.35603257 -99.50907925 42.70751327 -96.27197266 41.05737305 C-94.21084171 40.02273831 -92.14901533 38.98948755 -90.08642578 37.95776367 C-89.11858658 37.46205368 -88.15074738 36.96634369 -87.15357971 36.45561218 C-85.79208046 35.78414909 -85.79208046 35.78414909 -84.40307617 35.09912109 C-83.60905899 34.70037277 -82.81504181 34.30162445 -81.9969635 33.89079285 C-77.89066914 32.60619383 -74.5795427 34.01639525 -70.89355469 35.92382812 C-70.18643341 36.28591873 -69.47931213 36.64800934 -68.75076294 37.02107239 C-67.99657074 37.41525864 -67.24237854 37.80944489 -66.46533203 38.21557617 C-65.66964813 38.62527145 -64.87396423 39.03496674 -64.0541687 39.45707703 C-61.4667597 40.79122599 -58.8840189 42.134151 -56.30126953 43.47729492 C-54.50531031 44.40554168 -52.70908489 45.33327359 -50.91259766 46.26049805 C-41.13993679 51.30929556 -31.38152549 56.38598914 -21.64013672 61.49487305 C-15.46828304 64.72613927 -9.27530573 67.91493737 -3.07470703 71.09057617 C-2.21383484 71.53150604 -1.35296265 71.97243591 -0.46600342 72.42672729 C3.85009708 74.63665591 8.16731098 76.84438133 12.48583984 79.04956055 C14.10108483 79.87571167 15.71631962 80.70188274 17.33154297 81.52807617 C18.04444489 81.89129471 18.7573468 82.25451324 19.49185181 82.6287384 C26.16074147 86.04227262 32.72190387 89.60996522 39.32373047 93.16479492 C39.65373047 113.95479492 39.98373047 134.74479492 40.32373047 156.16479492 C40.98373047 156.49479492 41.64373047 156.82479492 42.32373047 157.16479492 C44.77459247 156.18014906 44.77459247 156.18014906 47.51513672 154.67260742 C48.541875 154.13249023 49.56861328 153.59237305 50.62646484 153.03588867 C51.7021875 152.45967773 52.77791016 151.8834668 53.88623047 151.28979492 C55.50561523 150.43708008 55.50561523 150.43708008 57.15771484 149.56713867 C62.03191163 147.2869253 62.03191163 147.2869253 66.32373047 144.16479492 C66.44748216 142.14064501 66.50170357 140.11221755 66.52905273 138.08447266 C66.54899796 136.78319931 66.56894318 135.48192596 66.5894928 134.14122009 C66.60647846 132.71027752 66.62335722 131.27933368 66.64013672 129.84838867 C66.66069952 128.39249572 66.68169581 126.93660883 66.70310974 125.48072815 C66.75840008 121.64206846 66.80777849 117.80335427 66.85595703 113.96459961 C66.90612138 110.05016204 66.96183383 106.13580396 67.01708984 102.22143555 C67.1247565 94.53595591 67.2261824 86.85041035 67.32373047 79.16479492 C65.93907341 78.71762871 65.93907341 78.71762871 64.52644348 78.26142883 C61.01336008 77.05852168 57.8019708 75.4884995 54.52294922 73.77026367 C53.86668045 73.43098343 53.21041168 73.09170319 52.53425598 72.74214172 C51.10844026 72.00439399 49.68364525 71.26467093 48.25976562 70.52319336 C45.96013213 69.32568606 43.65793741 68.13324099 41.35498047 66.94213867 C38.89876759 65.67176747 36.44269956 64.40112623 33.98739624 63.1289978 C25.47324004 58.71856269 16.93819529 54.34926036 8.40124512 49.9831543 C-10.97321303 40.07341487 -30.32802304 30.12559299 -49.67626953 20.16479492 C-49.67626953 19.50479492 -49.67626953 18.84479492 -49.67626953 18.16479492 C-44.44106578 15.435444 -39.19416861 12.73059633 -33.93530273 10.04711914 C-32.15036201 9.13210471 -30.36871368 8.21063652 -28.59057617 7.2824707 C-26.02480017 5.94461718 -23.44783461 4.63090073 -20.86767578 3.32104492 C-20.08292374 2.90544312 -19.29817169 2.48984131 -18.48963928 2.06164551 C-12.26378372 -1.05406622 -6.75654005 -2.1085681 0 0 Z " fill="#6D964B" transform="translate(134.67626953125,0.835205078125)" />
</svg>
